<svg width="34" height="26" viewBox="0 0 34 26" fill="none" xmlns="http://www.w3.org/2000/svg">
<path fill-rule="evenodd" clip-rule="evenodd" d="M8.93254 4.24071C9.09576 3.54851 9.71933 3.05882 10.4376 3.05882H23.5625C24.2806 3.05882 24.9042 3.54851 25.0674 4.24071L25.8706 7.64706H24.7273H9.27273H8.12938L8.93254 4.24071ZM1.54545 10.7059H3.09034C2.12027 11.984 1.54545 13.5726 1.54545 15.2941V16.8235C1.54545 18.8212 2.83562 20.5209 4.63636 21.1507V24.4706C4.63636 25.3153 5.32829 26 6.18182 26H7.72727C8.5808 26 9.27273 25.3153 9.27273 24.4706V21.4118H24.7273V24.4706C24.7273 25.3153 25.4192 26 26.2727 26H27.8182C28.6717 26 29.3636 25.3153 29.3636 24.4706V21.1507C31.1644 20.5209 32.4545 18.8212 32.4545 16.8235V15.2941C32.4545 13.5726 31.8798 11.984 30.9097 10.7059H32.4545C33.3081 10.7059 34 10.0212 34 9.17647C34 8.33181 33.3081 7.64706 32.4545 7.64706H30.9091C30.1055 7.64706 29.4451 8.25407 29.3706 9.03006L29.3231 8.82894L28.0775 3.54565C27.5879 1.46906 25.7171 0 23.5625 0H10.4376C8.28285 0 6.41211 1.46906 5.92249 3.54565L4.67679 8.82894L4.62938 9.03004C4.5549 8.25407 3.89453 7.64706 3.09091 7.64706H1.54545C0.691931 7.64706 0 8.33181 0 9.17647C0 10.0212 0.691931 10.7059 1.54545 10.7059ZM9.27273 10.7059C6.71214 10.7059 4.63636 12.76 4.63636 15.2941V16.8235C4.63636 17.6682 5.32829 18.3529 6.18182 18.3529H7.72727H26.2727H27.8182C28.6717 18.3529 29.3636 17.6682 29.3636 16.8235V15.2941C29.3636 12.76 27.2879 10.7059 24.7273 10.7059H9.27273ZM7.72727 14.5294C7.72727 13.2624 8.76515 12.2353 10.0455 12.2353C11.3258 12.2353 12.3636 13.2624 12.3636 14.5294C12.3636 15.7964 11.3258 16.8235 10.0455 16.8235C8.76515 16.8235 7.72727 15.7964 7.72727 14.5294ZM23.9545 12.2353C22.6743 12.2353 21.6364 13.2624 21.6364 14.5294C21.6364 15.7964 22.6743 16.8235 23.9545 16.8235C25.2348 16.8235 26.2727 15.7964 26.2727 14.5294C26.2727 13.2624 25.2348 12.2353 23.9545 12.2353Z" fill="#CFAD65"/>
</svg>
