<svg xmlns="http://www.w3.org/2000/svg" width="34" height="26" fill="none" viewBox="0 0 34 26">
  <path fill="#CFAD65" fill-rule="evenodd" d="M8.933 4.24a1.542 1.542 0 0 1 1.505-1.181h13.124c.719 0 1.342.49 1.505 1.182l.804 3.406H8.129l.804-3.406Zm-7.388 6.466H3.09a7.562 7.562 0 0 0-1.545 4.588v1.53c0 1.997 1.29 3.697 3.091 4.327v3.32c0 .844.692 1.529 1.546 1.529h1.545c.854 0 1.546-.685 1.546-1.53v-3.058h15.454v3.059c0 .844.692 1.529 1.546 1.529h1.545c.854 0 1.546-.685 1.546-1.53v-3.32c1.8-.63 3.09-2.329 3.09-4.326v-1.53c0-1.721-.574-3.31-1.544-4.588h1.545c.853 0 1.545-.685 1.545-1.53 0-.844-.692-1.529-1.545-1.529h-1.546a1.54 1.54 0 0 0-1.538 1.383l-.048-.201-1.245-5.283C27.588 1.469 25.718 0 23.563 0H10.438C8.283 0 6.412 1.47 5.922 3.546L4.677 8.829l-.048.201a1.54 1.54 0 0 0-1.538-1.383H1.545C.692 7.647 0 8.332 0 9.177c0 .844.692 1.529 1.545 1.529Zm7.728 0c-2.56 0-4.637 2.054-4.637 4.588v1.53c0 .844.692 1.529 1.546 1.529h21.636c.854 0 1.546-.685 1.546-1.53v-1.529c0-2.534-2.076-4.588-4.637-4.588H9.273Zm-1.546 3.823c0-1.267 1.038-2.294 2.319-2.294 1.28 0 2.318 1.027 2.318 2.294 0 1.267-1.038 2.294-2.319 2.294-1.28 0-2.318-1.027-2.318-2.294Zm16.227-2.294c-1.28 0-2.318 1.027-2.318 2.294 0 1.267 1.038 2.294 2.319 2.294 1.28 0 2.318-1.027 2.318-2.294 0-1.267-1.038-2.294-2.319-2.294Z" clip-rule="evenodd"/>
</svg>
