<svg width="34" height="27" viewBox="0 0 34 27" fill="none" xmlns="http://www.w3.org/2000/svg">
<path d="M34 1.6875V8.4375L17 15.1875L0 8.4375V1.6875C0 1.23995 0.179107 0.810725 0.497918 0.494258C0.81673 0.17779 1.24913 0 1.7 0H32.3C32.7509 0 33.1833 0.17779 33.5021 0.494258C33.8209 0.810725 34 1.23995 34 1.6875ZM0 12.0724V25.3125C0 25.7601 0.179107 26.1893 0.497918 26.5057C0.81673 26.8222 1.24913 27 1.7 27H32.3C32.7509 27 33.1833 26.8222 33.5021 26.5057C33.8209 26.1893 34 25.7601 34 25.3125V12.0724L17 18.8224L0 12.0724Z" fill="white"/>
</svg>
