<svg width="255" height="81" viewBox="0 0 255 81" fill="none" xmlns="http://www.w3.org/2000/svg">
<path d="M31.7738 28.4952V37.0632H52.1931C51.9013 41.0778 50.2499 44.8729 47.5113 47.8223C45.4701 49.9074 43.0157 51.5428 40.3056 52.6236C37.5955 53.7044 34.6894 54.2068 31.7738 54.0985C28.807 54.0935 25.8706 53.5005 23.1344 52.3536C20.3981 51.2066 17.9163 49.5286 15.8324 47.4165C13.7485 45.3044 12.1039 42.8001 10.9935 40.0483C9.88317 37.2966 9.32917 34.352 9.36355 31.3848C9.31845 28.4099 9.86437 25.4557 10.9697 22.6935C12.0749 19.9313 13.7176 17.4161 15.8023 15.2938C17.887 13.1715 20.3723 11.4843 23.114 10.3302C25.8557 9.17605 28.7992 8.57791 31.7738 8.57046C37.516 8.51399 43.0551 10.693 47.2203 14.6468L53.1963 8.66957C50.3804 5.87373 47.0356 3.66728 43.3574 2.17915C39.6791 0.691017 35.7412 -0.0489416 31.7738 0.00251027C23.4317 -0.00212784 15.4227 3.27622 9.47736 9.12919C3.532 14.9822 0.127688 22.9398 0 31.2826C0.127688 39.6254 3.532 47.583 9.47736 53.436C15.4227 59.2889 23.4317 62.5673 31.7738 62.5627C41.1374 62.5627 48.1089 59.4749 53.588 53.7949C59.2653 48.1165 60.9591 40.2454 60.9591 33.7695C61.0098 31.9628 60.8424 30.1566 60.4605 28.39L31.7738 28.4952Z" fill="#4285F4"/>
<path d="M86.5575 21.5225C83.8836 21.4718 81.2268 21.9595 78.7451 22.9566C76.2634 23.9537 74.0076 25.4398 72.1119 27.3266C70.2161 29.2134 68.7191 31.4622 67.7099 33.9394C66.7006 36.4166 66.1999 39.0715 66.2373 41.7462C66.2174 45.7702 67.3922 49.7095 69.6128 53.065C71.8335 56.4206 75.0001 59.0412 78.7113 60.595C82.4225 62.1487 86.5114 62.5656 90.4597 61.7928C94.4081 61.02 98.0382 59.0922 100.89 56.2539C103.742 53.4155 105.687 49.7943 106.48 45.8491C107.272 41.9038 106.875 37.8121 105.34 34.0925C103.805 30.3728 101.201 27.1926 97.8572 24.9549C94.5134 22.7171 90.5807 21.5226 86.5575 21.5225ZM86.5575 54.0011C80.4823 54.0011 75.203 48.9204 75.203 41.7477C75.203 34.4697 80.4823 29.4943 86.5575 29.4943C92.6327 29.4943 97.912 34.4759 97.912 41.7477C97.912 48.9189 92.6327 54.0011 86.5575 54.0011Z" fill="#EA4335"/>
<path d="M185.862 26.0132H185.564C184.214 24.5421 182.564 23.3794 180.725 22.6044C178.885 21.8294 176.901 21.4604 174.906 21.5225C164.842 21.5225 155.98 30.2902 155.98 41.7461C155.98 53.103 164.746 61.9698 174.906 61.9698C176.907 62.0175 178.895 61.6329 180.735 60.8421C182.574 60.0514 184.221 58.8731 185.564 57.3877H185.862V60.175C185.862 67.8464 181.682 72.0305 175.105 72.0305C172.894 71.9699 170.749 71.2566 168.942 69.9804C167.134 68.7042 165.744 66.9219 164.946 64.8578L157.276 68.0462C158.722 71.6071 161.204 74.651 164.401 76.7828C167.598 78.9147 171.362 80.0358 175.205 80.0007C185.564 80.0007 194.429 73.9243 194.429 58.9796V22.6188H186.068V26.0132H185.862ZM175.703 54.0073C169.628 54.0073 164.946 48.8275 164.946 41.7539C164.946 34.5811 169.628 29.5004 175.703 29.5004C181.778 29.5004 186.46 34.6802 186.46 41.8545C186.561 48.8197 181.78 54.0011 175.705 54.0011L175.703 54.0073Z" fill="#4285F4"/>
<path d="M131.778 21.5225C129.104 21.4718 126.447 21.9595 123.966 22.9566C121.484 23.9537 119.228 25.4398 117.333 27.3266C115.437 29.2134 113.94 31.4622 112.931 33.9394C111.921 36.4166 111.421 39.0715 111.458 41.7462C111.438 45.7702 112.613 49.7095 114.834 53.065C117.054 56.4206 120.221 59.0412 123.932 60.595C127.643 62.1487 131.732 62.5656 135.68 61.7928C139.629 61.02 143.259 59.0922 146.111 56.2539C148.963 53.4155 150.908 49.7943 151.7 45.8491C152.493 41.9038 152.096 37.8121 150.561 34.0925C149.026 30.3728 146.422 27.1926 143.078 24.9549C139.734 22.7171 135.801 21.5226 131.778 21.5225ZM131.778 54.0011C125.703 54.0011 120.424 48.9204 120.424 41.7477C120.424 34.4697 125.703 29.4943 131.778 29.4943C137.853 29.4943 143.133 34.4759 143.133 41.7477C143.133 48.9189 137.853 54.0011 131.778 54.0011Z" fill="#FBBC05"/>
<path d="M201.303 0.80014H210.069V61.8706H201.303V0.80014Z" fill="#34A853"/>
<path d="M236.96 53.9996C234.916 54.0631 232.899 53.52 231.164 52.4386C229.428 51.3572 228.051 49.7861 227.207 47.9232L254.197 36.7646L253.295 34.4743C251.602 29.9836 246.522 21.6216 236.064 21.6216C225.705 21.6216 217.04 29.7916 217.04 41.8453C216.977 44.5013 217.451 47.1427 218.433 49.6115C219.414 52.0802 220.884 54.3257 222.753 56.2135C224.622 58.1014 226.852 59.593 229.31 60.5991C231.769 61.6051 234.405 62.105 237.061 62.0689C240.389 62.0882 243.67 61.2788 246.607 59.7135C249.545 58.1483 252.046 55.8765 253.887 53.103L247.014 48.5209C245.912 50.1872 244.419 51.5579 242.665 52.513C240.91 53.4681 238.948 53.9786 236.951 53.9996H236.96ZM236.363 29.0932C237.941 29.0061 239.509 29.3855 240.873 30.1841C242.237 30.9827 243.336 32.1651 244.033 33.5839L225.806 41.1562C225.71 32.5805 231.782 29.0932 236.363 29.0932Z" fill="#EA4335"/>
</svg>
