<svg width="31" height="35" viewBox="0 0 31 35" fill="none" xmlns="http://www.w3.org/2000/svg">
<path d="M15.5 35C13.8684 35 15.7986 32.4295 7.75489 28.4314C7.31421 28.212 6.88658 27.9674 6.4741 27.6988C2.47184 25.1007 0 20.3488 0 15.234C0 6.82093 6.93911 0 15.5 0C24.0609 0 31 6.82093 31 15.2323C31 20.8681 27.9914 26.0693 23.2582 28.4249C15.2063 32.4279 17.1316 35 15.5 35ZM15.5 21.3419C18.9443 21.3419 21.7 18.62 21.7 15.3105C21.7 12.0009 18.9443 9.27907 15.5 9.27907C12.0557 9.27907 9.3 12.0009 9.3 15.3105C9.3 18.62 12.0557 21.3419 15.5 21.3419Z" fill="white"/>
</svg>
