<svg width="19" height="19" viewBox="0 0 19 19" fill="none" xmlns="http://www.w3.org/2000/svg">
<path d="M0.00559163 2.41454C-0.0902539 1.05673 1.05954 0 2.41796 0H5.32575C6.02305 0 6.65196 0.420141 6.92016 1.06513L8.13608 3.98943C8.43229 4.70179 8.22206 5.52459 7.62071 6.00669L6.86274 6.61432C6.52448 6.88549 6.40949 7.35307 6.61004 7.73746C7.64075 9.71277 9.16408 11.3892 11.0166 12.6032C11.4076 12.8594 11.9241 12.7575 12.2159 12.3921L13.0057 11.4027C13.4868 10.8001 14.3079 10.5895 15.0187 10.8863L17.937 12.1047C18.5808 12.3735 19 13.0037 19 13.7024V16.6248C19 17.986 17.9065 19.0905 16.5515 18.9941C7.88699 18.3777 0.619843 11.1165 0.00559163 2.41454Z" fill="white"/>
</svg>
