<svg width="32" height="32" viewBox="0 0 32 32" fill="none" xmlns="http://www.w3.org/2000/svg">
<path d="M0.00941748 4.0666C-0.152007 1.77975 1.78449 0 4.07235 0H8.96969C10.1441 0 11.2033 0.707607 11.655 1.7939L13.7029 6.71905C14.2018 7.91881 13.8477 9.30458 12.8349 10.1165L11.5583 11.1399C10.9886 11.5966 10.7949 12.3841 11.1327 13.0315C12.8686 16.3583 15.4342 19.1818 18.5542 21.2264C19.2128 21.658 20.0827 21.4863 20.5741 20.8709L21.9043 19.2045C22.7146 18.1897 24.0974 17.835 25.2947 18.3348L30.2098 20.3869C31.2939 20.8396 32 21.901 32 23.0778V27.9996C32 30.2922 30.1582 32.1524 27.8762 31.9901C13.2834 30.9519 1.04395 18.7225 0.00941748 4.0666Z" fill="white"/>
</svg>
