<svg width="23" height="22" viewBox="0 0 23 22" fill="none" xmlns="http://www.w3.org/2000/svg">
<path fill-rule="evenodd" clip-rule="evenodd" d="M11.9023 0.711295L14.9988 7.33536L22.2519 8.23476C22.4463 8.25886 22.6 8.38572 22.6607 8.57231C22.7213 8.75891 22.6715 8.9517 22.5284 9.0856L17.1885 14.0783L18.5749 21.2581C18.6122 21.4507 18.5391 21.6359 18.3805 21.7511C18.2217 21.8666 18.0233 21.8786 17.8518 21.7838L11.4553 18.2461L5.05885 21.7838C4.88715 21.8786 4.68861 21.8666 4.53015 21.7511C4.3717 21.6356 4.29841 21.4505 4.33574 21.2581L5.7221 14.0783L0.382244 9.08516C0.23893 8.95124 0.189381 8.75845 0.249941 8.57187C0.310501 8.38528 0.463967 8.25859 0.658376 8.23432L7.91149 7.33492L11.0082 0.711295C11.0913 0.533654 11.2592 0.426758 11.4551 0.426758C11.6511 0.426758 11.8192 0.533654 11.9021 0.711295H11.9023Z" fill="#CFAD65"/>
</svg>
