<svg width="27" height="27" viewBox="0 0 27 27" fill="none" xmlns="http://www.w3.org/2000/svg">
<path d="M19.0458 16.1591C18.7151 16.0003 17.1314 15.2063 16.8356 15.0828C16.5397 14.9593 16.3309 14.924 16.1046 15.2592C15.8784 15.5945 15.2693 16.3179 15.0779 16.5473V16.5473C14.7363 16.9566 14.1264 16.4562 13.6528 16.2115C12.9812 15.8644 12.3547 15.432 11.7887 14.924C11.0951 14.2618 10.5079 13.4938 10.0484 12.6477C9.85695 12.3301 10.0484 12.1537 10.1876 11.9772C10.3268 11.8008 10.5009 11.6067 10.6749 11.4126C10.8022 11.2447 10.9075 11.0608 10.9881 10.8656C11.0313 10.7748 11.0537 10.6752 11.0537 10.5744V10.5744C11.0537 10.3763 10.9678 10.1822 10.896 9.99758C10.6907 9.4691 10.1965 8.3763 9.97877 7.86588C9.70032 7.21301 9.45668 7.30124 9.26525 7.30124H8.56913C8.23751 7.31434 7.92457 7.4603 7.69897 7.70707C7.33483 8.0594 7.04639 8.48419 6.85173 8.95483C6.65708 9.42546 6.56041 9.93179 6.56777 10.4421C6.65679 11.6949 7.11111 12.8925 7.873 13.8829C9.27111 15.9887 11.1839 17.691 13.4246 18.8236C14.1903 19.1588 14.782 19.3529 15.2519 19.5117C15.9117 19.7139 16.6092 19.7562 17.2881 19.6352C17.739 19.5425 18.1663 19.3568 18.5435 19.0897C18.8145 18.8977 19.0555 18.6667 19.2592 18.4044C19.4189 18.1988 19.5386 17.9636 19.6047 17.7118C19.6435 17.5639 19.6709 17.4134 19.6866 17.2615C19.7363 16.7817 19.4806 16.368 19.0458 16.1591V16.1591Z" fill="white"/>
<path d="M23.0158 3.92439C21.7625 2.6678 20.2685 1.67321 18.6219 0.999287C16.9754 0.325359 15.2097 -0.0142607 13.4289 0.000458771C11.0698 0.01272 8.75534 0.639506 6.71651 1.81821C4.67769 2.99692 2.98591 4.6863 1.81016 6.71761C0.634404 8.74893 0.0158207 11.0511 0.0161902 13.3941C0.0164858 15.2691 0.413133 17.1178 1.17443 18.8223C1.54068 19.6424 1.68479 20.5576 1.45756 21.4265V21.4265C0.802021 23.9332 3.07381 26.2251 5.58622 25.5918L5.80425 25.5368C6.66356 25.3202 7.56531 25.4526 8.38393 25.792C10.0237 26.4719 11.7877 26.8231 13.5739 26.82H13.4289C16.1073 26.8373 18.7302 26.062 20.9631 24.5928C23.196 23.1236 24.9378 21.0272 25.9663 18.5709C26.9948 16.1146 27.2634 13.4097 26.7379 10.8011C26.2125 8.19257 24.9166 5.79856 23.0158 3.92439ZM13.4289 24.516C11.4183 24.5176 9.44504 23.9763 7.72025 22.9501V22.9501C7.46493 22.8002 7.16061 22.7577 6.87402 22.8319L6.37407 22.9614C4.90788 23.341 3.57922 21.9938 3.97916 20.533L4.07624 20.1784C4.15805 19.8796 4.11262 19.5603 3.95074 19.2961V19.2961C2.50338 16.9811 1.96198 14.2189 2.42925 11.5336C2.89652 8.84835 4.33995 6.42686 6.48567 4.72859C8.6314 3.03032 11.3301 2.17342 14.0698 2.32047C16.8095 2.46753 19.3995 3.60831 21.3485 5.52636C22.3933 6.55575 23.2215 7.78138 23.7846 9.13183C24.3478 10.4823 24.6347 11.9305 24.6287 13.3922C24.6239 16.341 23.4424 19.1676 21.343 21.2527C19.2437 23.3378 16.3978 24.5113 13.4289 24.516Z" fill="white"/>
</svg>
